<?xml version="1.0" encoding="UTF-8" standalone="no"?>
<svg
   xmlns:dc="http://purl.org/dc/elements/1.1/"
   xmlns:cc="http://creativecommons.org/ns#"
   xmlns:rdf="http://www.w3.org/1999/02/22-rdf-syntax-ns#"
   xmlns:svg="http://www.w3.org/2000/svg"
   xmlns="http://www.w3.org/2000/svg"
   xmlns:sodipodi="http://sodipodi.sourceforge.net/DTD/sodipodi-0.dtd"
   xmlns:inkscape="http://www.inkscape.org/namespaces/inkscape"
   width="62.32"
   height="58.880001"
   viewBox="0 0 62.32 58.880001"
   id="svg2"
   version="1.1"
   inkscape:version="0.91 r13725"
   sodipodi:docname="arrow-up.svg" overflow="visible">
  <metadata
     id="metadata10">
    <rdf:RDF>
      <cc:Work
         rdf:about="">
        <dc:format>image/svg+xml</dc:format>
        <dc:type
           rdf:resource="http://purl.org/dc/dcmitype/StillImage" />
        <dc:title></dc:title>
      </cc:Work>
    </rdf:RDF>
  </metadata>
  <defs
     id="defs8" />
  <sodipodi:namedview
     pagecolor="#ffffff"
     bordercolor="#666666"
     borderopacity="1"
     objecttolerance="10"
     gridtolerance="10"
     guidetolerance="10"
     inkscape:pageopacity="0"
     inkscape:pageshadow="2"
     inkscape:window-width="1366"
     inkscape:window-height="705"
     id="namedview6"
     showgrid="false"
     showborder="false"
     inkscape:zoom="0.1767767"
     inkscape:cx="-528.53293"
     inkscape:cy="530.64605"
     inkscape:window-x="-8"
     inkscape:window-y="-8"
     inkscape:window-maximized="1"
     inkscape:current-layer="svg2"
     fit-margin-top="0"
     fit-margin-left="0"
     fit-margin-right="0"
     fit-margin-bottom="0" />
  <path
     d="m 62.32,31.16 q 0,2.04 -1.48,3.6 l -3,3 q -1.52,1.52 -3.64,1.52 -2.16,0 -3.6,-1.52 l -11.76,-11.72 0,28.16 q 0,2.08 -1.5,3.38 -1.5,1.3 -3.62,1.3 l -5.12,0 q -2.12,0 -3.62,-1.3 -1.5,-1.3 -1.5,-3.38 l 0,-28.16 -11.76,11.72 q -1.44,1.52 -3.6,1.52 -2.16,0 -3.6,-1.52 l -3,-3 Q 0,33.24 0,31.16 0,29.04 1.52,27.52 L 27.56,1.48 Q 28.96,0 31.16,0 33.32,0 34.8,1.48 l 26.04,26.04 q 1.48,1.56 1.48,3.64 z"
     id="path4"
     inkscape:connector-curvature="0" />
</svg>
