<?xml version="1.0" encoding="UTF-8" standalone="no"?>
<svg
   xmlns:dc="http://purl.org/dc/elements/1.1/"
   xmlns:cc="http://creativecommons.org/ns#"
   xmlns:rdf="http://www.w3.org/1999/02/22-rdf-syntax-ns#"
   xmlns:svg="http://www.w3.org/2000/svg"
   xmlns="http://www.w3.org/2000/svg"
   xmlns:sodipodi="http://sodipodi.sourceforge.net/DTD/sodipodi-0.dtd"
   xmlns:inkscape="http://www.inkscape.org/namespaces/inkscape"
   version="1.1"
   id="svg2"
   viewBox="0 0 1099 2104"
   height="2104"
   width="1099"
   overflow="visible"
   inkscape:version="0.91 r13725"
   sodipodi:docname="BlindDoor - Copy.svg">
  <sodipodi:namedview
     pagecolor="#ffffff"
     bordercolor="#666666"
     borderopacity="1"
     objecttolerance="10"
     gridtolerance="10"
     guidetolerance="10"
     inkscape:pageopacity="0"
     inkscape:pageshadow="2"
     inkscape:window-width="1366"
     inkscape:window-height="705"
     id="namedview17"
     showgrid="false"
     showborder="false"
     inkscape:zoom="0.63451406"
     inkscape:cx="-221.8019"
     inkscape:cy="1045.6694"
     inkscape:window-x="-8"
     inkscape:window-y="-8"
     inkscape:window-maximized="1"
     inkscape:current-layer="svg2" />
  <defs
     id="defs4" />
  <metadata
     id="metadata7">
    <rdf:RDF>
      <cc:Work
         rdf:about="">
        <dc:format>image/svg+xml</dc:format>
        <dc:type
           rdf:resource="http://purl.org/dc/dcmitype/StillImage" />
        <dc:title />
      </cc:Work>
    </rdf:RDF>
  </metadata>
  <g
     id="layer1">
    <rect
       y="0"
       x="0"
       height="2104"
       width="1099"
       id="door"
       style="opacity:1;fill:#c0c0c0;fill-opacity:0.70588235;fill-rule:evenodd;stroke:#000000;stroke-width:2;stroke-linecap:butt;stroke-linejoin:miter;stroke-miterlimit:4;stroke-dasharray:none;stroke-opacity:1" />
    <rect
       y="0"
       x="0"
       height="2104"
       width="250"
       id="extendedDoor"
       style="opacity:1;fill:#c0c0c0;fill-opacity:0.70588235;fill-rule:evenodd;stroke:#000000;stroke-width:2;stroke-linecap:butt;stroke-linejoin:miter;stroke-miterlimit:4;stroke-dasharray:none;stroke-opacity:1" />
    <path
       id="imageABB"
       d="M 69.312127,1094.5 C 69.012837,1094.5062 65.746707,1093.3372 62.054027,1091.9012 L 55.340097,1089.2902 55.334647,1083.7626 55.329207,1078.2351 59.501377,1078.4726 C 63.587797,1078.7052 63.678137,1078.762 63.896307,1081.2351 64.081437,1083.3335 64.602917,1083.9713 66.983597,1085.0113 69.795527,1086.2396 69.848207,1086.3381 69.852147,1090.3753 69.854407,1092.6373 69.611287,1094.4934 69.312017,1094.5 Z M 66.969817,1070.7817 C 64.591187,1071.8276 64.070947,1072.4668 63.889917,1074.5656 63.676557,1077.0392 63.586337,1077.0962 59.500387,1077.3391 L 55.328697,1077.5871 55.323247,1072.0122 55.317807,1066.4373 62.026667,1063.8586 C 65.716557,1062.4403 68.980407,1061.2839 69.279697,1061.2888 69.578987,1061.2936 69.825677,1063.1485 69.827907,1065.4105 69.831797,1069.4477 69.779357,1069.5463 66.969807,1070.7817 Z M 62.565987,1058.8783 55.310457,1058.8877 55.305767,1054.0306 55.301087,1049.1734 62.556627,1049.1641 69.812177,1049.1554 69.816857,1054.0124 69.821547,1058.8695 62.565997,1058.8783 Z M 62.650097,1048.3545 55.300187,1048.3636 55.294707,1042.7254 C 55.288477,1036.2728 55.966867,1035.4104 61.054957,1035.404 65.406337,1035.3987 69.078837,1039.3151 69.610647,1044.5282 L 70.000017,1048.3451 62.650127,1048.3544 Z M 62.540727,1032.9738 55.285177,1032.9831 55.280497,1028.126 55.275807,1023.2689 62.531337,1023.2596 69.786887,1023.2508 69.791567,1028.1079 69.796247,1032.965 62.540727,1032.9738 Z M 62.624817,1022.45 55.274907,1022.4596 55.269457,1016.8215 C 55.263217,1010.3688 55.941637,1009.5064 61.029727,1009.5 65.381077,1009.4947 69.053597,1013.4111 69.585407,1018.6242 L 69.974777,1022.4411 62.624867,1022.4507 Z M 54.210307,1088.2115 C 53.988797,1088.4592 50.804457,1087.4722 47.134007,1086.0182 40.798857,1083.5087 40.448777,1083.2469 40.230647,1080.8549 L 40.000807,1078.3351 47.302307,1078.326 54.603827,1078.3164 54.608517,1083.0387 C 54.611057,1085.6358 54.431887,1087.9635 54.210377,1088.2112 Z M 47.301527,1077.5164 40.000007,1077.5258 40.224907,1074.9928 C 40.434027,1072.6372 40.830977,1072.3039 45.889287,1070.2363 55.514837,1066.3021 54.591897,1066.095 54.597867,1072.191 L 54.603117,1077.5075 47.301587,1077.5168 Z M 47.329327,1058.8975 40.073787,1058.9062 40.069097,1054.0491 40.064417,1049.192 47.319967,1049.1833 54.575487,1049.1742 54.580177,1054.0314 54.584857,1058.8885 47.329307,1058.8972 Z M 47.319027,1048.3738 40.063477,1048.3825 40.060347,1045.2164 C 40.054677,1039.4124 46.492957,1035.7661 50.807457,1039.1298 52.110657,1040.1459 52.671897,1040.2087 53.508647,1039.4321 54.414107,1038.5918 54.565527,1039.1593 54.569687,1043.4081 L 54.574567,1048.3643 47.319027,1048.3736 Z M 47.304017,1032.9929 40.048467,1033.0017 40.043777,1028.1446 40.039097,1023.2875 47.294637,1023.2787 54.550187,1023.27 54.554867,1028.127 54.559557,1032.9841 47.304007,1032.9932 Z M 47.293687,1022.4692 40.038157,1022.478 40.035027,1019.3118 C 40.029357,1013.5078 46.467637,1009.8615 50.782157,1013.2252 52.085357,1014.2412 52.646577,1014.304 53.483337,1013.5275 54.388787,1012.6872 54.540217,1013.2547 54.544367,1017.5035 L 54.549247,1022.4597 47.293697,1022.4685 Z"
       style="fill:#f2f2f2" />
    <g
       id="gripStrip">
      <rect
         style="opacity:1;fill:#e0e0e0;fill-opacity:1;fill-rule:evenodd;stroke:#000000;stroke-width:2;stroke-linecap:butt;stroke-linejoin:miter;stroke-miterlimit:4;stroke-dasharray:none;stroke-opacity:1"
         id="gripBase"
         width="75"
         height="2104"
         x="1024"
         y="0" />
      <rect
         style="opacity:1;fill:#e0e0e0;fill-opacity:1;fill-rule:evenodd;stroke:#000000;stroke-width:2;stroke-linecap:butt;stroke-linejoin:miter;stroke-miterlimit:4;stroke-dasharray:none;stroke-opacity:1"
         id="gripPane"
         width="40"
         height="2104"
         x="1041.5"
         y="0" />
      <g
         id="gripSwivel">
        <rect
           ry="6.3334913"
           y="962"
           x="1043.5"
           height="180"
           width="36"
           id="gripBase-1"
           style="opacity:1;fill:#808080;fill-opacity:1;fill-rule:evenodd;stroke:#000000;stroke-width:1;stroke-linecap:butt;stroke-linejoin:miter;stroke-miterlimit:4;stroke-dasharray:none;stroke-opacity:1"
           rx="6.3334913" />
        <rect
           rx="4.3022523"
           ry="4.3022528"
           y="989.5"
           x="1049.5"
           height="105"
           width="24"
           id="gripBase-18"
           style="opacity:1;fill:#ebebeb;fill-opacity:1;fill-rule:evenodd;stroke:#000000;stroke-width:1;stroke-linecap:butt;stroke-linejoin:miter;stroke-miterlimit:4;stroke-dasharray:none;stroke-opacity:1" />
        <circle
           r="11.500002"
           cy="1115.9961"
           cx="1061.5"
           id="path4489"
           style="opacity:1;fill:#c06000;fill-opacity:1;stroke:#000000;stroke-width:1;stroke-linecap:round;stroke-linejoin:round;stroke-miterlimit:4;stroke-dasharray:none;stroke-opacity:1" />
        <rect
           ry="34.493706"
           y="1092.9946"
           x="1050"
           height="7.000001"
           width="23.000004"
           id="gripBase-1-0"
           style="opacity:1;fill:#808080;fill-opacity:1;fill-rule:evenodd;stroke:#000000;stroke-width:1;stroke-linecap:butt;stroke-linejoin:miter;stroke-miterlimit:4;stroke-dasharray:none;stroke-opacity:1"
           rx="1.3028581" />
      </g>
      <g
         id="gripSwivel_left">
        <rect
           ry="6.3334913"
           y="-1142"
           x="-1079.5"
           height="180"
           width="36"
           id="gripBase-1-8"
           style="opacity:1;fill:#808080;fill-opacity:1;fill-rule:evenodd;stroke:#000000;stroke-width:1;stroke-linecap:butt;stroke-linejoin:miter;stroke-miterlimit:4;stroke-dasharray:none;stroke-opacity:1"
           rx="6.3334913"
           transform="scale(-1,-1)" />
        <rect
           style="opacity:1;fill:#ebebeb;fill-opacity:1;fill-rule:evenodd;stroke:#000000;stroke-width:1;stroke-linecap:butt;stroke-linejoin:miter;stroke-miterlimit:4;stroke-dasharray:none;stroke-opacity:1"
           id="gripBase-18-8"
           width="24"
           height="105"
           x="-1073.5"
           y="-1114.5"
           ry="4.3022528"
           rx="4.3022523"
           transform="scale(-1,-1)" />
        <circle
           style="opacity:1;fill:#c06000;fill-opacity:1;stroke:#000000;stroke-width:1;stroke-linecap:round;stroke-linejoin:round;stroke-miterlimit:4;stroke-dasharray:none;stroke-opacity:1"
           id="path4489-6"
           cx="-1061.5"
           cy="-988.00391"
           r="11.500002"
           transform="scale(-1,-1)" />
        <rect
           rx="1.3028581"
           style="opacity:1;fill:#808080;fill-opacity:1;fill-rule:evenodd;stroke:#000000;stroke-width:1;stroke-linecap:butt;stroke-linejoin:miter;stroke-miterlimit:4;stroke-dasharray:none;stroke-opacity:1"
           id="gripBase-1-0-0"
           width="23.000004"
           height="7.000001"
           x="-1073"
           y="-1011.0054"
           ry="34.493706"
           transform="scale(-1,-1)" />
      </g>
    </g>
  </g>
</svg>
