<?xml version="1.0" encoding="UTF-8" standalone="no"?>
<svg
   xmlns:dc="http://purl.org/dc/elements/1.1/"
   xmlns:cc="http://creativecommons.org/ns#"
   xmlns:rdf="http://www.w3.org/1999/02/22-rdf-syntax-ns#"
   xmlns:svg="http://www.w3.org/2000/svg"
   xmlns="http://www.w3.org/2000/svg"
   xmlns:sodipodi="http://sodipodi.sourceforge.net/DTD/sodipodi-0.dtd"
   xmlns:inkscape="http://www.inkscape.org/namespaces/inkscape"
   version="1.1"
   id="svg2"
   viewBox="0 0 2200 2106"
   height="2106"
   width="2200"
   overflow="visible"
   inkscape:version="0.91 r13725"
   sodipodi:docname="BlindDoorDouble.svg"
   style="overflow:visible">
  <sodipodi:namedview
     pagecolor="#ffffff"
     bordercolor="#666666"
     borderopacity="1"
     objecttolerance="10"
     gridtolerance="10"
     guidetolerance="10"
     inkscape:pageopacity="0"
     inkscape:pageshadow="2"
     inkscape:window-width="1366"
     inkscape:window-height="705"
     id="namedview17"
     showgrid="false"
     showborder="false"
     inkscape:zoom="0.15862852"
     inkscape:cx="985.97633"
     inkscape:cy="1243.6183"
     inkscape:window-x="-8"
     inkscape:window-y="-8"
     inkscape:window-maximized="1"
     inkscape:current-layer="svg2"
     fit-margin-top="0"
     fit-margin-left="0"
     fit-margin-right="0"
     fit-margin-bottom="0" />
  <defs
     id="defs4" />
  <metadata
     id="metadata7">
    <rdf:RDF>
      <cc:Work
         rdf:about="">
        <dc:format>image/svg+xml</dc:format>
        <dc:type
           rdf:resource="http://purl.org/dc/dcmitype/StillImage" />
        <dc:title />
      </cc:Work>
    </rdf:RDF>
  </metadata>
  <g
     id="layer1">
    <rect
       y="0"
       x="0"
       height="2104"
       width="1099"
       id="door"
       style="opacity:1;fill:#c0c0c0;fill-opacity:0.70588235;fill-rule:evenodd;stroke:#000000;stroke-width:2;stroke-linecap:butt;stroke-linejoin:miter;stroke-miterlimit:4;stroke-dasharray:none;stroke-opacity:1" />
    <path
       inkscape:connector-curvature="0"
       style="fill:#f2f2f2"
       d="m 69.312127,1094.5 c -0.29929,0.01 -3.56542,-1.1628 -7.2581,-2.5988 l -6.71393,-2.611 -0.0055,-5.5276 -0.0054,-5.5275 4.17217,0.2375 c 4.08642,0.2326 4.17676,0.2894 4.39493,2.7625 0.18513,2.0984 0.70661,2.7362 3.08729,3.7762 2.81193,1.2283 2.86461,1.3268 2.86855,5.364 0.0023,2.262 -0.24086,4.1181 -0.54013,4.1247 z m -2.34231,-23.7183 c -2.37863,1.0459 -2.89887,1.6851 -3.0799,3.7839 -0.21336,2.4736 -0.30358,2.5306 -4.38953,2.7735 l -4.17169,0.248 -0.0054,-5.5749 -0.0054,-5.5749 6.70886,-2.5787 c 3.68989,-1.4183 6.95374,-2.5747 7.25303,-2.5698 0.29929,0 0.54598,1.8597 0.54821,4.1217 0.0039,4.0372 -0.04855,4.1358 -2.8581,5.3712 z m -4.40383,-11.9034 -7.25553,0.01 -0.0047,-4.8571 -0.0047,-4.8572 7.25554,-0.01 7.25555,-0.01 0.0047,4.857 0.0047,4.8571 -7.25555,0.01 z m 0.08411,-10.5238 -7.34991,0.01 -0.0055,-5.6382 c -0.0062,-6.4526 0.67216,-7.315 5.76025,-7.3214 4.35138,-0.01 8.02388,3.9111 8.55569,9.1242 l 0.38937,3.8169 -7.34989,0.01 z m -0.10937,-15.3807 -7.25555,0.01 -0.0047,-4.8571 -0.0047,-4.8571 7.25553,-0.01 7.25555,-0.01 0.0047,4.8571 0.0047,4.8571 -7.25552,0.01 z m 0.08409,-10.5238 -7.34991,0.01 -0.0054,-5.6381 c -0.0062,-6.4527 0.67218,-7.3151 5.76027,-7.3215 4.35135,-0.01 8.02387,3.9111 8.55568,9.1242 l 0.38937,3.8169 -7.34991,0.01 z m -8.41451,65.7615 c -0.22151,0.2477 -3.40585,-0.7393 -7.0763,-2.1933 -6.33515,-2.5095 -6.68523,-2.7713 -6.90336,-5.1633 l -0.22984,-2.5198 7.3015,-0.01 7.30152,-0.01 0.0047,4.7223 c 0.0025,2.5971 -0.17663,4.9248 -0.39814,5.1725 z m -6.90878,-10.6951 -7.30152,0.01 0.2249,-2.533 c 0.20912,-2.3556 0.60607,-2.6889 5.66438,-4.7565 9.62555,-3.9342 8.70261,-4.1413 8.70858,1.9547 l 0.0052,5.3165 -7.30153,0.01 z m 0.0278,-18.6189 -7.25554,0.01 -0.0047,-4.8571 -0.0047,-4.8571 7.25555,-0.01 7.25552,-0.01 0.0047,4.8572 0.0047,4.8571 -7.25555,0.01 z m -0.0103,-10.5237 -7.25555,0.01 -0.0031,-3.1661 c -0.0057,-5.804 6.43261,-9.4503 10.74711,-6.0866 1.3032,1.0161 1.86444,1.0789 2.70119,0.3023 0.90546,-0.8403 1.05688,-0.2728 1.06104,3.976 l 0.0049,4.9562 -7.25554,0.01 z m -0.01501,-15.3809 -7.25555,0.01 -0.0047,-4.8571 -0.0047,-4.8571 7.25554,-0.01 7.25555,-0.01 0.0047,4.857 0.0047,4.8571 -7.25555,0.01 z m -0.01033,-10.5237 -7.25553,0.01 -0.0031,-3.1662 c -0.0057,-5.804 6.43261,-9.4503 10.74713,-6.0866 1.3032,1.016 1.86442,1.0788 2.70118,0.3023 0.90545,-0.8403 1.05688,-0.2728 1.06103,3.976 l 0.0049,4.9562 -7.25555,0.01 z"
       id="imageABB" />
    <g
       id="gripStrip">
      <rect
         y="0"
         x="1024"
         height="2104"
         width="75"
         id="gripBase"
         style="opacity:1;fill:#e0e0e0;fill-opacity:1;fill-rule:evenodd;stroke:#000000;stroke-width:2;stroke-linecap:butt;stroke-linejoin:miter;stroke-miterlimit:4;stroke-dasharray:none;stroke-opacity:1" />
      <rect
         y="0"
         x="1041.5"
         height="2104"
         width="40"
         id="gripPane"
         style="opacity:1;fill:#e0e0e0;fill-opacity:1;fill-rule:evenodd;stroke:#000000;stroke-width:2;stroke-linecap:butt;stroke-linejoin:miter;stroke-miterlimit:4;stroke-dasharray:none;stroke-opacity:1" />
      <g
         id="gripSwivel">
        <rect
           rx="6.3334913"
           style="opacity:1;fill:#808080;fill-opacity:1;fill-rule:evenodd;stroke:#000000;stroke-width:1;stroke-linecap:butt;stroke-linejoin:miter;stroke-miterlimit:4;stroke-dasharray:none;stroke-opacity:1"
           id="gripBase-1"
           width="36"
           height="180"
           x="1043.5"
           y="962"
           ry="6.3334913" />
        <rect
           style="opacity:1;fill:#ebebeb;fill-opacity:1;fill-rule:evenodd;stroke:#000000;stroke-width:1;stroke-linecap:butt;stroke-linejoin:miter;stroke-miterlimit:4;stroke-dasharray:none;stroke-opacity:1"
           id="gripBase-18"
           width="24"
           height="105"
           x="1049.5"
           y="989.5"
           ry="4.3022528"
           rx="4.3022523" />
        <circle
           style="opacity:1;fill:#c06000;fill-opacity:1;stroke:#000000;stroke-width:1;stroke-linecap:round;stroke-linejoin:round;stroke-miterlimit:4;stroke-dasharray:none;stroke-opacity:1"
           id="path4489"
           cx="1061.5"
           cy="1115.9961"
           r="11.500002" />
        <rect
           rx="1.3028581"
           style="opacity:1;fill:#808080;fill-opacity:1;fill-rule:evenodd;stroke:#000000;stroke-width:1;stroke-linecap:butt;stroke-linejoin:miter;stroke-miterlimit:4;stroke-dasharray:none;stroke-opacity:1"
           id="gripBase-1-0"
           width="23.000004"
           height="7.000001"
           x="1050"
           y="1092.9946"
           ry="34.493706" />
      </g>
    </g>
  </g>
  <g
     id="layer2">
    <rect
       y="0"
       x="1099"
       height="2104"
       width="1099"
       id="door-9"
       style="opacity:1;fill:#c0c0c0;fill-opacity:0.70588235;fill-rule:evenodd;stroke:#000000;stroke-width:2;stroke-linecap:butt;stroke-linejoin:miter;stroke-miterlimit:4;stroke-dasharray:none;stroke-opacity:1" />
    <g
       transform="translate(75,0)"
       id="gripStrip-4">
      <rect
         style="opacity:1;fill:#e0e0e0;fill-opacity:1;fill-rule:evenodd;stroke:#000000;stroke-width:2;stroke-linecap:butt;stroke-linejoin:miter;stroke-miterlimit:4;stroke-dasharray:none;stroke-opacity:1"
         id="gripBase-6"
         width="75"
         height="2104"
         x="1024"
         y="0" />
      <rect
         style="opacity:1;fill:#e0e0e0;fill-opacity:1;fill-rule:evenodd;stroke:#000000;stroke-width:2;stroke-linecap:butt;stroke-linejoin:miter;stroke-miterlimit:4;stroke-dasharray:none;stroke-opacity:1"
         id="gripPane-0"
         width="40"
         height="2104"
         x="1041.5"
         y="0" />
      <g
         id="gripSwivel-5">
        <rect
           ry="6.3334913"
           y="962"
           x="1043.5"
           height="180"
           width="36"
           id="gripBase-1-9"
           style="opacity:1;fill:#808080;fill-opacity:1;fill-rule:evenodd;stroke:#000000;stroke-width:1;stroke-linecap:butt;stroke-linejoin:miter;stroke-miterlimit:4;stroke-dasharray:none;stroke-opacity:1"
           rx="6.3334913" />
        <rect
           rx="4.3022523"
           ry="4.3022528"
           y="989.5"
           x="1049.5"
           height="105"
           width="24"
           id="gripBase-18-6"
           style="opacity:1;fill:#ebebeb;fill-opacity:1;fill-rule:evenodd;stroke:#000000;stroke-width:1;stroke-linecap:butt;stroke-linejoin:miter;stroke-miterlimit:4;stroke-dasharray:none;stroke-opacity:1" />
        <circle
           r="11.500002"
           cy="1115.9961"
           cx="1061.5"
           id="path4489-6"
           style="opacity:1;fill:#c06000;fill-opacity:1;stroke:#000000;stroke-width:1;stroke-linecap:round;stroke-linejoin:round;stroke-miterlimit:4;stroke-dasharray:none;stroke-opacity:1" />
        <rect
           ry="34.493706"
           y="1092.9946"
           x="1050"
           height="7.000001"
           width="23.000004"
           id="gripBase-1-0-9"
           style="opacity:1;fill:#808080;fill-opacity:1;fill-rule:evenodd;stroke:#000000;stroke-width:1;stroke-linecap:butt;stroke-linejoin:miter;stroke-miterlimit:4;stroke-dasharray:none;stroke-opacity:1"
           rx="1.3028581" />
      </g>
    </g>
    <path
       inkscape:connector-curvature="0"
       style="overflow:visible;fill:#f2f2f2"
       d="m 2128.6833,1009.5004 c 0.2993,-0.01 3.566,1.1628 7.2592,2.5988 l 6.715,2.611 0.01,5.5276 0.01,5.5275 -4.1728,-0.2375 c -4.087,-0.2326 -4.1775,-0.2894 -4.3956,-2.7625 -0.1852,-2.0984 -0.7067,-2.7362 -3.0877,-3.7762 -2.8124,-1.2283 -2.8651,-1.3268 -2.8691,-5.364 0,-2.262 0.241,-4.1181 0.5403,-4.1247 z m 2.3428,23.7183 c 2.3789,-1.0459 2.8992,-1.6851 3.0803,-3.7839 0.2133,-2.4736 0.3036,-2.5306 4.3902,-2.7735 l 4.1723,-0.248 0.01,5.5749 0.01,5.5749 -6.7099,2.5787 c -3.6905,1.4183 -6.9547,2.5747 -7.2541,2.5698 -0.2993,0 -0.5461,-1.8597 -0.5483,-4.1217 0,-4.0372 0.049,-4.1358 2.8586,-5.3712 z m 4.4044,11.9034 7.2566,-0.01 0,4.8571 0,4.8572 -7.2566,0.01 -7.2567,0.01 0,-4.857 0,-4.8571 7.2567,-0.01 z m -0.084,10.5238 7.351,-0.01 0.01,5.6382 c 0.01,6.4526 -0.6723,7.315 -5.7612,7.3214 -4.3519,0.01 -8.025,-3.9111 -8.5569,-9.1242 l -0.3894,-3.8169 7.351,-0.01 z m 0.1093,15.3807 7.2567,-0.01 0,4.8571 0,4.8571 -7.2566,0.01 -7.2567,0.01 0,-4.8571 0,-4.8571 7.2566,-0.01 z m -0.084,10.5238 7.351,-0.01 0.01,5.6381 c 0.01,6.4527 -0.6723,7.3151 -5.7612,7.3215 -4.352,0.01 -8.0251,-3.9111 -8.5569,-9.1242 l -0.3895,-3.8169 7.3511,-0.01 z m 8.4158,-65.7615 c 0.2215,-0.2477 3.4063,0.7393 7.0773,2.1933 6.3361,2.5095 6.6862,2.7713 6.9044,5.1633 l 0.2299,2.5198 -7.3026,0.01 -7.3027,0.01 0,-4.7223 c 0,-2.5971 0.1767,-4.9248 0.3983,-5.1725 z m 6.9097,10.6951 7.3027,-0.01 -0.2249,2.533 c -0.2093,2.3556 -0.6062,2.6889 -5.6653,4.7565 -9.627,3.9342 -8.7039,4.1413 -8.7099,-1.9547 l -0.01,-5.3165 7.3026,-0.01 z m -0.028,18.6189 7.2567,-0.01 0,4.8571 0,4.8571 -7.2567,0.01 -7.2566,0.01 0,-4.8572 0,-4.8571 7.2567,-0.01 z m 0.01,10.5237 7.2567,-0.01 0,3.1661 c 0.01,5.804 -6.4336,9.4503 -10.7487,6.0866 -1.3034,-1.0161 -1.8648,-1.0789 -2.7016,-0.3023 -0.9057,0.8403 -1.0571,0.2728 -1.0612,-3.976 l 0,-4.9562 7.2566,-0.01 z m 0.015,15.3809 7.2566,-0.01 0,4.8571 0,4.8571 -7.2566,0.01 -7.2567,0.01 0,-4.857 0,-4.8571 7.2567,-0.01 z m 0.01,10.5237 7.2566,-0.01 0,3.1662 c 0.01,5.804 -6.4336,9.4503 -10.7487,6.0866 -1.3034,-1.016 -1.8647,-1.0788 -2.7016,-0.3023 -0.9056,0.8403 -1.0571,0.2728 -1.0612,-3.976 l 0,-4.9562 7.2566,-0.01 z"
       id="imageABB-9" />
  </g>
</svg>
