<?xml version="1.0" encoding="UTF-8" standalone="no"?>
<svg
   xmlns:dc="http://purl.org/dc/elements/1.1/"
   xmlns:cc="http://creativecommons.org/ns#"
   xmlns:rdf="http://www.w3.org/1999/02/22-rdf-syntax-ns#"
   xmlns:svg="http://www.w3.org/2000/svg"
   xmlns="http://www.w3.org/2000/svg"
   xmlns:sodipodi="http://sodipodi.sourceforge.net/DTD/sodipodi-0.dtd"
   xmlns:inkscape="http://www.inkscape.org/namespaces/inkscape"
   version="1.1"
   id="svg2"
   viewBox="0 0 2200 2106"
   height="2106"
   width="2200"
   overflow="visible"
   inkscape:version="0.91 r13725"
   sodipodi:docname="GlassDoorDouble.svg"
   style="overflow:visible">
  <sodipodi:namedview
     pagecolor="#ffffff"
     bordercolor="#666666"
     borderopacity="1"
     objecttolerance="10"
     gridtolerance="10"
     guidetolerance="10"
     inkscape:pageopacity="0"
     inkscape:pageshadow="2"
     inkscape:window-width="1366"
     inkscape:window-height="705"
     id="namedview19"
     showgrid="false"
     showborder="false"
     inkscape:zoom="0.2243346"
     inkscape:cx="968.75281"
     inkscape:cy="942.26743"
     inkscape:window-x="-8"
     inkscape:window-y="-8"
     inkscape:window-maximized="1"
     inkscape:current-layer="svg2"
     fit-margin-top="0"
     fit-margin-left="0"
     fit-margin-right="0"
     fit-margin-bottom="0" />
  <defs
     id="defs4" />
  <metadata
     id="metadata7">
    <rdf:RDF>
      <cc:Work
         rdf:about="">
        <dc:format>image/svg+xml</dc:format>
        <dc:type
           rdf:resource="http://purl.org/dc/dcmitype/StillImage" />
        <dc:title />
      </cc:Work>
    </rdf:RDF>
  </metadata>
  <g
     id="layer1">
    <rect
       y="0"
       x="0"
       height="2104"
       width="1099"
       id="door"
       style="opacity:1;fill:#c0c0c0;fill-opacity:1;fill-rule:evenodd;stroke:#000000;stroke-width:2;stroke-linecap:square;stroke-linejoin:miter;stroke-miterlimit:4;stroke-dasharray:none;stroke-opacity:1" />
    <path
       d="m 0,0 500,0 0,1800 -500,0 z m 109.5,89 281,0 0,1622 -281,0 z"
       style="opacity:1;fill:#c0c0c0;fill-opacity:0.70588235;fill-rule:evenodd;stroke:#000000;stroke-width:2;stroke-linecap:square;stroke-linejoin:miter;stroke-miterlimit:4;stroke-dasharray:none;stroke-opacity:1"
       id="framePath"
       inkscape:connector-curvature="0" />
    <rect
       y="146"
       x="112"
       height="1926"
       width="880"
       id="glassPane"
       style="opacity:1;fill:#ffffff;fill-opacity:1;fill-rule:evenodd;stroke:#000000;stroke-width:2;stroke-linecap:square;stroke-linejoin:miter;stroke-miterlimit:4;stroke-dasharray:none;stroke-opacity:1" />
    <path
       id="imageABB"
       d="m 69.3121,1094.4998 c -0.2993,0.01 -3.5654,-1.1628 -7.2581,-2.5988 l -6.7139,-2.611 -0.006,-5.5276 -0.005,-5.5275 4.1722,0.2375 c 4.0864,0.2326 4.1767,0.2894 4.3949,2.7625 0.1851,2.0984 0.7066,2.7362 3.0873,3.7762 2.8119,1.2283 2.8646,1.3268 2.8686,5.364 0.002,2.262 -0.2409,4.1181 -0.5402,4.1247 z m -2.3423,-23.7183 c -2.3786,1.0459 -2.8989,1.6851 -3.0799,3.7839 -0.2133,2.4736 -0.3036,2.5306 -4.3895,2.7735 l -4.1717,0.248 -0.005,-5.5749 -0.005,-5.5749 6.7089,-2.5787 c 3.6899,-1.4183 6.9537,-2.5747 7.253,-2.5698 0.2993,0 0.546,1.8597 0.5482,4.1217 0.004,4.0372 -0.0485,4.1358 -2.8581,5.3712 z m -4.4038,-11.9034 -7.2555,0.01 -0.005,-4.8571 -0.005,-4.8572 7.2555,-0.01 7.2556,-0.01 0.005,4.857 0.005,4.8571 -7.2556,0.01 z m 0.0841,-10.5238 -7.3499,0.01 -0.005,-5.6382 c -0.006,-6.4526 0.6722,-7.315 5.7603,-7.3214 4.3513,-0.01 8.0238,3.9111 8.5557,9.1242 l 0.3893,3.8169 -7.3499,0.01 z m -0.1094,-15.3807 -7.2555,0.01 -0.005,-4.8571 -0.005,-4.8571 7.2555,-0.01 7.2556,-0.01 0.005,4.8571 0.005,4.8571 -7.2556,0.01 z m 0.0841,-10.5238 -7.3499,0.01 -0.005,-5.6381 c -0.006,-6.4527 0.6721,-7.3151 5.7602,-7.3215 4.3514,0 8.0239,3.9111 8.5557,9.1242 l 0.3894,3.8169 -7.3499,0.01 z m -8.4145,65.7615 c -0.2215,0.2477 -3.4058,-0.7393 -7.0763,-2.1933 -6.3351,-2.5095 -6.6852,-2.7713 -6.9034,-5.1633 l -0.2298,-2.5198 7.3015,-0.01 7.3015,-0.01 0.005,4.7223 c 0.003,2.5971 -0.1766,4.9248 -0.3981,5.1725 z m -6.9088,-10.6951 -7.3015,0.01 0.2249,-2.533 c 0.2091,-2.3556 0.6061,-2.6889 5.6644,-4.7565 9.6255,-3.9342 8.7026,-4.1413 8.7086,1.9547 l 0.005,5.3165 -7.3015,0.01 z m 0.0278,-18.6189 -7.2555,0.01 -0.005,-4.8571 -0.005,-4.8571 7.2556,-0.01 7.2555,-0.01 0.005,4.8572 0.005,4.8571 -7.2556,0.01 z m -0.0103,-10.5237 -7.2555,0.01 -0.003,-3.1661 c -0.006,-5.804 6.4327,-9.4503 10.7472,-6.0866 1.3032,1.0161 1.8644,1.0789 2.7011,0.3023 0.9055,-0.8403 1.0569,-0.2728 1.0611,3.976 l 0.005,4.9562 -7.2556,0.01 z m -0.015,-15.3809 -7.2555,0.01 -0.005,-4.8571 -0.005,-4.8571 7.2555,-0.01 7.2556,-0.01 0.005,4.857 0.005,4.8571 -7.2556,0.01 z m -0.0103,-10.5237 -7.2555,0.01 -0.003,-3.1662 c -0.006,-5.804 6.4326,-9.4503 10.7472,-6.0866 1.3032,1.016 1.8644,1.0788 2.7011,0.3023 0.9055,-0.8403 1.0569,-0.2728 1.0611,3.976 l 0.005,4.9562 -7.2555,0.01 z"
       style="fill:#f2f2f2"
       inkscape:connector-curvature="0" />
    <g
       id="gripStrip">
      <rect
         style="opacity:1;fill:#e0e0e0;fill-opacity:1;fill-rule:evenodd;stroke:#000000;stroke-width:2;stroke-linecap:butt;stroke-linejoin:miter;stroke-miterlimit:4;stroke-dasharray:none;stroke-opacity:1"
         id="gripBase"
         width="75"
         height="2104"
         x="1024"
         y="0" />
      <rect
         style="opacity:1;fill:#e0e0e0;fill-opacity:1;fill-rule:evenodd;stroke:#000000;stroke-width:2;stroke-linecap:butt;stroke-linejoin:miter;stroke-miterlimit:4;stroke-dasharray:none;stroke-opacity:1"
         id="gripPane"
         width="40"
         height="2104"
         x="1041.5"
         y="0" />
      <g
         id="gripSwivel">
        <rect
           ry="6.3334913"
           y="962"
           x="1043.5"
           height="180"
           width="36"
           id="gripBase-1"
           style="opacity:1;fill:#808080;fill-opacity:1;fill-rule:evenodd;stroke:#000000;stroke-width:1;stroke-linecap:butt;stroke-linejoin:miter;stroke-miterlimit:4;stroke-dasharray:none;stroke-opacity:1"
           rx="6.3334913" />
        <rect
           rx="4.3022523"
           ry="4.3022528"
           y="989.5"
           x="1049.5"
           height="105"
           width="24"
           id="gripBase-18"
           style="opacity:1;fill:#ebebeb;fill-opacity:1;fill-rule:evenodd;stroke:#000000;stroke-width:1;stroke-linecap:butt;stroke-linejoin:miter;stroke-miterlimit:4;stroke-dasharray:none;stroke-opacity:1" />
        <circle
           r="11.500002"
           cy="1115.9961"
           cx="1061.5"
           id="path4489"
           style="opacity:1;fill:#c06000;fill-opacity:1;stroke:#000000;stroke-width:1;stroke-linecap:round;stroke-linejoin:round;stroke-miterlimit:4;stroke-dasharray:none;stroke-opacity:1" />
        <rect
           ry="34.493706"
           y="1092.9946"
           x="1050"
           height="7.000001"
           width="23.000004"
           id="gripBase-1-0"
           style="opacity:1;fill:#808080;fill-opacity:1;fill-rule:evenodd;stroke:#000000;stroke-width:1;stroke-linecap:butt;stroke-linejoin:miter;stroke-miterlimit:4;stroke-dasharray:none;stroke-opacity:1"
           rx="1.3028581" />
      </g>
    </g>
  </g>
  <g
     id="layer2">
    <rect
       y="0"
       x="1099"
       height="2104"
       width="1099"
       id="door-2"
       style="opacity:1;fill:#c0c0c0;fill-opacity:1;fill-rule:evenodd;stroke:#000000;stroke-width:2;stroke-linecap:square;stroke-linejoin:miter;stroke-miterlimit:4;stroke-dasharray:none;stroke-opacity:1" />
    <path
       inkscape:connector-curvature="0"
       id="framePath-1"
       style="opacity:1;fill:#c0c0c0;fill-opacity:0.70588235;fill-rule:evenodd;stroke:#000000;stroke-width:2;stroke-linecap:square;stroke-linejoin:miter;stroke-miterlimit:4;stroke-dasharray:none;stroke-opacity:1"
       d="m 1099,0 500,0 0,1800 -500,0 z m 109.5,89 281,0 0,1622 -281,0 z" />
    <rect
       style="opacity:1;fill:#ffffff;fill-opacity:1;fill-rule:evenodd;stroke:#000000;stroke-width:2;stroke-linecap:square;stroke-linejoin:miter;stroke-miterlimit:4;stroke-dasharray:none;stroke-opacity:1"
       id="glassPane-2"
       width="880"
       height="1926"
       x="1211"
       y="146" />
    <path
       inkscape:connector-curvature="0"
       style="fill:#f2f2f2"
       d="m 2129.6933,1009.5002 c 0.2993,-0.01 3.5654,1.1628 7.2581,2.5988 l 6.7139,2.611 0.01,5.5276 0.01,5.5275 -4.1722,-0.2375 c -4.0864,-0.2326 -4.1767,-0.2894 -4.3949,-2.7625 -0.1851,-2.0984 -0.7066,-2.7362 -3.0873,-3.7762 -2.8119,-1.2283 -2.8646,-1.3268 -2.8686,-5.364 0,-2.262 0.2409,-4.1181 0.5402,-4.1247 z m 2.3423,23.7183 c 2.3786,-1.0459 2.8989,-1.6851 3.0799,-3.7839 0.2133,-2.4736 0.3036,-2.5306 4.3895,-2.7735 l 4.1717,-0.248 0.01,5.5749 0,5.5749 -6.7089,2.5787 c -3.6899,1.4183 -6.9537,2.5747 -7.253,2.5698 -0.2993,0 -0.546,-1.8597 -0.5482,-4.1217 0,-4.0372 0.049,-4.1358 2.8581,-5.3712 z m 4.4038,11.9034 7.2555,-0.01 0.01,4.8571 0,4.8572 -7.2555,0.01 -7.2556,0.01 -0.01,-4.857 0,-4.8571 7.2556,-0.01 z m -0.084,10.5238 7.3499,-0.01 0,5.6382 c 0.01,6.4526 -0.6722,7.315 -5.7603,7.3214 -4.3513,0.01 -8.0238,-3.9111 -8.5557,-9.1242 l -0.3893,-3.8169 7.3499,-0.01 z m 0.1094,15.3807 7.2555,-0.01 0.01,4.8571 0,4.8571 -7.2555,0.01 -7.2556,0.01 -0.01,-4.8571 0,-4.8571 7.2556,-0.01 z m -0.084,10.5238 7.3499,-0.01 0,5.6381 c 0.01,6.4527 -0.6721,7.3151 -5.7602,7.3215 -4.3514,0 -8.0239,-3.9111 -8.5557,-9.1242 l -0.3894,-3.8169 7.3499,-0.01 z m 8.4145,-65.7615 c 0.2215,-0.2477 3.4058,0.7393 7.0763,2.1933 6.3351,2.5095 6.6852,2.7713 6.9034,5.1633 l 0.2298,2.5198 -7.3015,0.01 -7.3015,0.01 0,-4.7223 c 0,-2.5971 0.1766,-4.9248 0.3981,-5.1725 z m 6.9088,10.6951 7.3015,-0.01 -0.2249,2.533 c -0.2091,2.3556 -0.6061,2.6889 -5.6644,4.7565 -9.6255,3.9342 -8.7026,4.1413 -8.7086,-1.9547 l -0.01,-5.3165 7.3015,-0.01 z m -0.028,18.6189 7.2555,-0.01 0,4.8571 0.01,4.8571 -7.2556,0.01 -7.2555,0.01 0,-4.8572 -0.01,-4.8571 7.2556,-0.01 z m 0.01,10.5237 7.2555,-0.01 0,3.1661 c 0.01,5.804 -6.4327,9.4503 -10.7472,6.0866 -1.3032,-1.0161 -1.8644,-1.0789 -2.7011,-0.3023 -0.9055,0.8403 -1.0569,0.2728 -1.0611,-3.976 l -0.01,-4.9562 7.2556,-0.01 z m 0.015,15.3809 7.2555,-0.01 0.01,4.8571 0,4.8571 -7.2555,0.01 -7.2556,0.01 0,-4.857 -0.01,-4.8571 7.2556,-0.01 z m 0.01,10.5237 7.2555,-0.01 0,3.1662 c 0.01,5.804 -6.4326,9.4503 -10.7472,6.0866 -1.3032,-1.016 -1.8644,-1.0788 -2.7011,-0.3023 -0.9055,0.8403 -1.0569,0.2728 -1.0611,-3.976 l -0.01,-4.9562 7.2555,-0.01 z"
       id="imageABB-9" />
    <g
       id="gripStrip2">
      <rect
         y="0"
         x="1099"
         height="2104"
         width="75"
         id="gripBase-14"
         style="opacity:1;fill:#e0e0e0;fill-opacity:1;fill-rule:evenodd;stroke:#000000;stroke-width:2;stroke-linecap:butt;stroke-linejoin:miter;stroke-miterlimit:4;stroke-dasharray:none;stroke-opacity:1" />
      <rect
         style="opacity:1;fill:#e0e0e0;fill-opacity:1;fill-rule:evenodd;stroke:#000000;stroke-width:2;stroke-linecap:butt;stroke-linejoin:miter;stroke-miterlimit:4;stroke-dasharray:none;stroke-opacity:1"
         id="gripPane-3"
         width="40"
         height="2104"
         x="1116.5"
         y="0" />
      <g
         id="gripSwivel-0"
         transform="translate(75,0)">
        <rect
           ry="6.3334913"
           y="962"
           x="1043.5"
           height="180"
           width="36"
           id="gripBase-1-7"
           style="opacity:1;fill:#808080;fill-opacity:1;fill-rule:evenodd;stroke:#000000;stroke-width:1;stroke-linecap:butt;stroke-linejoin:miter;stroke-miterlimit:4;stroke-dasharray:none;stroke-opacity:1"
           rx="6.3334913" />
        <rect
           rx="4.3022523"
           ry="4.3022528"
           y="989.5"
           x="1049.5"
           height="105"
           width="24"
           id="gripBase-18-0"
           style="opacity:1;fill:#ebebeb;fill-opacity:1;fill-rule:evenodd;stroke:#000000;stroke-width:1;stroke-linecap:butt;stroke-linejoin:miter;stroke-miterlimit:4;stroke-dasharray:none;stroke-opacity:1" />
        <circle
           r="11.500002"
           cy="1115.9961"
           cx="1061.5"
           id="path4489-0"
           style="opacity:1;fill:#c06000;fill-opacity:1;stroke:#000000;stroke-width:1;stroke-linecap:round;stroke-linejoin:round;stroke-miterlimit:4;stroke-dasharray:none;stroke-opacity:1" />
        <rect
           ry="34.493706"
           y="1092.9946"
           x="1050"
           height="7.000001"
           width="23.000004"
           id="gripBase-1-0-2"
           style="opacity:1;fill:#808080;fill-opacity:1;fill-rule:evenodd;stroke:#000000;stroke-width:1;stroke-linecap:butt;stroke-linejoin:miter;stroke-miterlimit:4;stroke-dasharray:none;stroke-opacity:1"
           rx="1.3028581" />
      </g>
    </g>
  </g>
</svg>
