<?xml version="1.0" encoding="UTF-8" standalone="no"?>
<svg
   xmlns:dc="http://purl.org/dc/elements/1.1/"
   xmlns:cc="http://creativecommons.org/ns#"
   xmlns:rdf="http://www.w3.org/1999/02/22-rdf-syntax-ns#"
   xmlns:svg="http://www.w3.org/2000/svg"
   xmlns="http://www.w3.org/2000/svg"
   shape-rendering="crispEdges"
   version="1.1"
   id="svg2"
   viewBox="0 0 100 650"
   height="650"
   width="100" overflow="visible">
  <defs
     id="defs4" />
  <metadata
     id="metadata7">
    <rdf:RDF>
      <cc:Work
         rdf:about="">
        <dc:format>image/svg+xml</dc:format>
        <dc:type
           rdf:resource="http://purl.org/dc/dcmitype/StillImage" />
        <dc:title></dc:title>
      </cc:Work>
    </rdf:RDF>
  </metadata>
  <g
     id="layer1">
    <rect
       y="0"
       x="0"
       height="650"
       width="100"
       id="breaker"
       style="fill:#dcdcdc;fill-opacity:1;fill-rule:evenodd;stroke:#000000;stroke-width:1;stroke-linecap:square;stroke-linejoin:miter;stroke-miterlimit:4;stroke-dasharray:none;stroke-opacity:1" />
    <g
       id="description">
      <rect
         style="fill:#ff0000;fill-opacity:1;fill-rule:evenodd;stroke:#000000;stroke-width:1;stroke-linecap:square;stroke-linejoin:miter;stroke-miterlimit:4;stroke-dasharray:none;stroke-opacity:1"
         id="breaker-2"
         width="50"
         height="10"
         x="25"
         y="0" />
      <text
         xml:space="preserve"
         style="font-style:normal;font-variant:normal;font-weight:bold;font-stretch:normal;font-size:6.25px;line-height:125%;font-family:sans-serif;-inkscape-font-specification:'sans-serif, Bold';text-align:start;letter-spacing:0px;word-spacing:0px;writing-mode:lr-tb;text-anchor:start;fill:#000000;fill-opacity:1;stroke:none;stroke-width:1;stroke-linecap:butt;stroke-linejoin:miter;stroke-opacity:1"
         x="34.21936"
         y="7.34375"
         id="text4456"><tspan
           id="tspan4458"
           x="34.21936"
           y="7.34375">InLine II</tspan></text>
    </g>
    <g
       id="fuseSize">
      <rect
         style="fill:#ffffff;fill-opacity:1;fill-rule:evenodd;stroke:#000000;stroke-width:1;stroke-linecap:square;stroke-linejoin:miter;stroke-miterlimit:4;stroke-dasharray:none;stroke-opacity:1"
         id="breaker-2-5"
         width="50"
         height="10"
         x="25"
         y="628" />
      <text
         xml:space="preserve"
         style="font-style:normal;font-variant:normal;font-weight:bold;font-stretch:normal;font-size:6.25px;line-height:125%;font-family:sans-serif;-inkscape-font-specification:'sans-serif, Bold';text-align:start;letter-spacing:0px;word-spacing:0px;writing-mode:lr-tb;text-anchor:start;fill:#000000;fill-opacity:1;stroke:none;stroke-width:1;stroke-linecap:butt;stroke-linejoin:miter;stroke-opacity:1"
         x="40.170288"
         y="635.27051"
         id="fuseText"><tspan
           id="tspan4519"
           x="40.170288"
           y="635.27051">NH00</tspan></text>
    </g>
    <g
       id="grip">
      <g
         id="gripTop">
        <rect
           y="180"
           x="10"
           height="30"
           width="6"
           id="rectTL"
           style="opacity:1;fill:#f0f0f0;fill-opacity:1;fill-rule:nonzero;stroke:#000000;stroke-width:1;stroke-linecap:square;stroke-linejoin:miter;stroke-miterlimit:4;stroke-dasharray:none;stroke-dashoffset:0;stroke-opacity:1" />
        <rect
           y="180"
           x="84"
           height="30"
           width="6"
           id="rectTR"
           style="opacity:1;fill:#f0f0f0;fill-opacity:1;fill-rule:nonzero;stroke:#000000;stroke-width:1;stroke-linecap:square;stroke-linejoin:miter;stroke-miterlimit:4;stroke-dasharray:none;stroke-dashoffset:0;stroke-opacity:1" />
        <path
           style="opacity:1;fill:#c0c0c0;fill-opacity:1;fill-rule:nonzero;stroke:#000000;stroke-width:1;stroke-linecap:square;stroke-linejoin:miter;stroke-miterlimit:4;stroke-dasharray:none;stroke-dashoffset:0;stroke-opacity:1"
           d="M 70,60 L 80,100 L 80,190 C 80,190 60,190 20,190 L 20,100 L 30,60 L 40,60 L 60,60 Z"
           id="pathT" />
        <path
           d="M 70,50 L 80,70 L 80,180 C 80,190 30,190 20,180 L 20,70 L 30,50 C 45,50 56,50 70,50 Z M 69,30 L 90,70 L 90,190 C 90,200 20,200 10,190 L 10,70 L 30,30 C 44,30 55,30 69,30 Z"
           style="opacity:1;fill:#f0f0f0;fill-opacity:1;fill-rule:evenodd;stroke:#000000;stroke-width:1;stroke-linecap:square;stroke-linejoin:miter;stroke-miterlimit:4;stroke-dasharray:none;stroke-dashoffset:0;stroke-opacity:1"
           id="pathTop" />
        <rect
           y="96"
           x="32"
           height="35"
           width="35"
           id="rectT"
           style="opacity:1;fill:#808080;fill-opacity:1;fill-rule:nonzero;stroke:#000000;stroke-width:1;stroke-linecap:square;stroke-linejoin:miter;stroke-miterlimit:4;stroke-dasharray:none;stroke-dashoffset:0;stroke-opacity:1" />
      </g>
      <rect
         style="opacity:1;fill:#f0f0f0;fill-opacity:1;fill-rule:nonzero;stroke:#000000;stroke-width:1;stroke-linecap:square;stroke-linejoin:miter;stroke-miterlimit:4;stroke-dasharray:none;stroke-dashoffset:0;stroke-opacity:1"
         id="gripRight"
         width="6"
         height="420"
         x="91"
         y="92" />
      <rect
         style="opacity:1;fill:#f0f0f0;fill-opacity:1;fill-rule:nonzero;stroke:#000000;stroke-width:1;stroke-linecap:square;stroke-linejoin:miter;stroke-miterlimit:4;stroke-dasharray:none;stroke-dashoffset:0;stroke-opacity:1"
         id="gripLeft"
         width="6"
         height="420"
         x="3"
         y="92" />
      <g
         id="gripMiddle">
        <rect
           y="382"
           x="10"
           height="30"
           width="6"
           id="rectML"
           style="opacity:1;fill:#f0f0f0;fill-opacity:1;fill-rule:nonzero;stroke:#000000;stroke-width:1;stroke-linecap:square;stroke-linejoin:miter;stroke-miterlimit:4;stroke-dasharray:none;stroke-dashoffset:0;stroke-opacity:1" />
        <rect
           y="382"
           x="84"
           height="30"
           width="6"
           id="rectMR"
           style="opacity:1;fill:#f0f0f0;fill-opacity:1;fill-rule:nonzero;stroke:#000000;stroke-width:1;stroke-linecap:square;stroke-linejoin:miter;stroke-miterlimit:4;stroke-dasharray:none;stroke-dashoffset:0;stroke-opacity:1" />
        <path
           style="opacity:1;fill:#c0c0c0;fill-opacity:1;fill-rule:nonzero;stroke:#000000;stroke-width:1;stroke-linecap:square;stroke-linejoin:miter;stroke-miterlimit:4;stroke-dasharray:none;stroke-dashoffset:0;stroke-opacity:1"
           d="M 70,260 L 80,300 L 80,390 C 80,390 60,390 20,390 L 20,300 L 30,260 L 40,260 L 60,260 Z"
           id="pathM" />
        <rect
           y="298"
           x="32"
           height="35"
           width="35"
           id="rectM"
           style="opacity:1;fill:#808080;fill-opacity:1;fill-rule:nonzero;stroke:#000000;stroke-width:1;stroke-linecap:square;stroke-linejoin:miter;stroke-miterlimit:4;stroke-dasharray:none;stroke-dashoffset:0;stroke-opacity:1" />
        <path
           id="pathMiddle"
           style="opacity:1;fill:#f0f0f0;fill-opacity:1;fill-rule:evenodd;stroke:#000000;stroke-width:1;stroke-linecap:square;stroke-linejoin:miter;stroke-miterlimit:4;stroke-dasharray:none;stroke-dashoffset:0;stroke-opacity:1"
           d="M 70,250 L 80,270 L 80,380 C 80,390 30,390 20,380 L 20,270 L 30,250 C 45,250 56,250 70,250 Z M 69,230 L 90,270 L 90,390 C 90,400 20,400 10,390 L 10,270 L 30,230 C 44,230 55,230 69,230 Z" />
      </g>
      <g
         id="gripBottom">
        <rect
           y="580"
           x="10"
           height="30"
           width="6"
           id="rectBL"
           style="opacity:1;fill:#f0f0f0;fill-opacity:1;fill-rule:nonzero;stroke:#000000;stroke-width:1;stroke-linecap:square;stroke-linejoin:miter;stroke-miterlimit:4;stroke-dasharray:none;stroke-dashoffset:0;stroke-opacity:1" />
        <rect
           y="580"
           x="84"
           height="30"
           width="6"
           id="rectBR"
           style="opacity:1;fill:#f0f0f0;fill-opacity:1;fill-rule:nonzero;stroke:#000000;stroke-width:1;stroke-linecap:square;stroke-linejoin:miter;stroke-miterlimit:4;stroke-dasharray:none;stroke-dashoffset:0;stroke-opacity:1" />
        <path
           style="opacity:1;fill:#c0c0c0;fill-opacity:1;fill-rule:nonzero;stroke:#000000;stroke-width:1;stroke-linecap:square;stroke-linejoin:miter;stroke-miterlimit:4;stroke-dasharray:none;stroke-dashoffset:0;stroke-opacity:1"
           d="M 70,460 L 80,500 L 80,590 C 80,590 60,590 20,590 L 20,500 L 30,460 L 40,460 L 60,460 Z"
           id="pathB" />
        <rect
           y="496"
           x="32"
           height="35"
           width="35"
           id="rectB"
           style="opacity:1;fill:#808080;fill-opacity:1;fill-rule:nonzero;stroke:#000000;stroke-width:1;stroke-linecap:square;stroke-linejoin:miter;stroke-miterlimit:4;stroke-dasharray:none;stroke-dashoffset:0;stroke-opacity:1" />
        <path
           d="M 70,450 L 80,470 L 80,580 C 80,590 30,590 20,580 L 20,470 L 30,450 C 45,450 56,450 70,450 Z M 69,430 L 90,470 L 90,590 C 90,600 20,600 9.9,590 L 9.9,470 L 30,430 C 44,430 55,430 69,430 Z"
           style="opacity:1;fill:#f0f0f0;fill-opacity:1;fill-rule:evenodd;stroke:#000000;stroke-width:1;stroke-linecap:square;stroke-linejoin:miter;stroke-miterlimit:4;stroke-dasharray:none;stroke-dashoffset:0;stroke-opacity:1"
           id="pathBottom" />
      </g>
    </g>
    <rect
       y="0"
       x="0"
       height="650"
       width="100"
       id="emptyPanel"
       style="fill:none;fill-opacity:1;fill-rule:evenodd;stroke:#000000;stroke-width:2;stroke-linecap:butt;stroke-linejoin:miter;stroke-miterlimit:4;stroke-dasharray:none;stroke-opacity:1" />
    <text
       transform="matrix(0,1,-1,0,0,0)"
       id="pointText"
       y="-43.74939"
       x="339"
       style="font-style:normal;font-variant:normal;font-weight:normal;font-stretch:normal;font-size:17.5px;line-height:125%;font-family:sans-serif;-inkscape-font-specification:'sans-serif, Normal';text-align:start;letter-spacing:0px;word-spacing:0px;writing-mode:lr-tb;text-anchor:start;display:none;fill:#000000;fill-opacity:1;stroke:none;stroke-width:1;stroke-linecap:butt;stroke-linejoin:miter;stroke-opacity:1"
       xml:space="preserve"><tspan
         y="-43.74939"
         x="339"
         id="tspan4155">Text</tspan></text>
  </g>
</svg>
