<?xml version="1.0" encoding="UTF-8" standalone="no"?>
<svg
   xmlns:dc="http://purl.org/dc/elements/1.1/"
   xmlns:cc="http://creativecommons.org/ns#"
   xmlns:rdf="http://www.w3.org/1999/02/22-rdf-syntax-ns#"
   xmlns:svg="http://www.w3.org/2000/svg"
   xmlns="http://www.w3.org/2000/svg"
   xmlns:sodipodi="http://sodipodi.sourceforge.net/DTD/sodipodi-0.dtd"
   xmlns:inkscape="http://www.inkscape.org/namespaces/inkscape"
   width="473.46191"
   height="1900"
   viewBox="0 0 378.76954 1520"
   version="1.1"
   id="svg2"
   inkscape:version="0.48.4 r9939"
   sodipodi:docname="distribution_board_1800x300x400.svg">
  <metadata
     id="metadata33">
    <rdf:RDF>
      <cc:Work
         rdf:about="">
        <dc:format>image/svg+xml</dc:format>
        <dc:type
           rdf:resource="http://purl.org/dc/dcmitype/StillImage" />
      </cc:Work>
    </rdf:RDF>
  </metadata>
  <defs
     id="defs31" />
  <sodipodi:namedview
     pagecolor="#ffffff"
     bordercolor="#666666"
     borderopacity="1"
     objecttolerance="10"
     gridtolerance="10"
     guidetolerance="10"
     inkscape:pageopacity="0"
     inkscape:pageshadow="2"
     inkscape:window-width="1378"
     inkscape:window-height="878"
     id="namedview29"
     showgrid="false"
     inkscape:zoom="1.1609531"
     inkscape:cx="250.04024"
     inkscape:cy="1794.4206"
     inkscape:window-x="54"
     inkscape:window-y="-8"
     inkscape:window-maximized="1"
     inkscape:current-layer="svg2"
     inkscape:document-units="px"
     fit-margin-top="0"
     fit-margin-left="0"
     fit-margin-right="0"
     fit-margin-bottom="0" />
  <g
     id="#212121d2"
     transform="matrix(1.2520479,0,0,1.2520479,-836.35548,-78.839378)">
    <path
       d="m 668.04,63.03 c 56.97,-0.08 113.94,-0.01 170.91,-0.03 43.85,0.1 87.71,-0.22 131.56,0.16 -0.44,81.62 -0.15,163.25 -0.23,244.88 -0.01,291.63 0.01,583.26 -0.01,874.9 0.53,31.26 -0.33,62.52 0.05,93.79 -20.41,0.47 -40.85,0.12 -61.27,0.18 -0.13,-20.1 -0.02,-40.21 -0.05,-60.3 -59.68,-0.07 -119.37,-0.07 -179.05,-0.01 -0.08,20.07 0.12,40.14 -0.1,60.2 -20.51,0.23 -41.04,0.24 -61.55,0 -0.16,-24.95 0.04,-49.9 -0.31,-74.84 0.47,-55.66 0.12,-111.32 0.23,-166.99 0,-256.32 0,-512.65 0,-768.98 -0.02,-67.65 0.1,-135.31 -0.18,-202.96 m 1.28,1.1 c 0.29,9.11 -0.06,18.22 0.18,27.33 99.85,-0.08 199.71,0.01 299.56,-0.04 0.06,-9.14 0.01,-18.28 0.03,-27.42 -99.93,0.08 -199.85,-0.17 -299.77,0.13 m 0.11,193.96 c -0.05,309.61 0.09,619.21 -0.07,928.82 6.13,0.14 12.27,0.1 18.41,0.02 -0.13,-313.95 -0.02,-627.9 -0.05,-941.85 -0.11,-50.86 0.21,-101.74 -0.17,-152.6 -6.01,0.17 -12.03,0.08 -18.04,0.05 -0.2,55.19 -0.03,110.38 -0.08,165.56 M 688.88,92.58 c -0.08,364.8 -0.01,729.61 -0.03,1094.41 2.71,-0.01 5.43,-0.01 8.15,0.01 0,-364.81 0,-729.62 0,-1094.42 -2.71,-0.01 -5.42,-0.02 -8.12,0 m 9.29,0.52 c 0.17,1.13 0.29,2.26 0.37,3.4 80.52,-0.17 161.04,-0.01 241.56,-0.08 0.01,-0.89 0.04,-2.66 0.05,-3.54 -64.73,-0.06 -129.46,-0.01 -194.19,-0.03 -15.92,0.17 -31.88,-0.33 -47.79,0.25 m 243.59,-0.51 c -0.04,364.8 0,729.6 -0.02,1094.41 2.75,-0.01 5.5,-0.01 8.26,0 -0.01,-364.81 0.02,-729.63 -0.02,-1094.44 -2.74,-0.01 -5.48,0.02 -8.22,0.03 m 9.25,-0.03 c -0.03,364.81 0,729.62 -0.01,1094.44 6.02,-0.01 12.04,-0.01 18.07,0 -0.02,-364.81 0.04,-729.62 -0.03,-1094.43 -6.01,-0.01 -12.02,0.01 -18.03,-0.01 m -252.73,13.46 c -0.04,358.65 0.05,717.29 -0.05,1075.94 80.68,0.21 161.37,0.03 242.05,0.08 0.03,-361.48 0.08,-722.96 -0.03,-1084.45 -80.56,-0.14 -161.13,0.15 -241.69,-0.14 -0.53,2.83 -0.25,5.71 -0.28,8.57 m 0.12,1077.27 c -0.04,1.2 -0.07,2.41 -0.1,3.64 80.63,0.16 161.27,0.02 241.9,0.07 -0.1,-1.27 -0.16,-2.53 -0.19,-3.77 -80.54,0.13 -161.07,0.01 -241.61,0.06 m -29.05,4.81 c 0.26,9.03 -0.15,18.08 0.21,27.11 22.49,-0.04 45,-0.29 67.49,0.23 53.98,-0.02 107.95,0 161.93,-0.01 23.36,-0.47 46.73,-0.22 70.09,-0.29 0.03,-9.05 0.01,-18.09 0.02,-27.14 -99.92,0.06 -199.83,-0.12 -299.74,0.1 m 0.09,87.56 c 19.75,0.09 39.5,0.03 59.25,0.03 -0.14,-19.73 0.35,-39.5 -0.24,-59.2 -19.63,0.24 -39.25,0.08 -58.88,0.08 -0.29,19.69 -0.01,39.39 -0.13,59.09 M 910,1216.62 c 0.07,19.72 -0.14,39.44 0.11,59.16 19.61,-0.16 39.21,-0.09 58.82,-0.03 0.18,-19.71 0.03,-39.42 0.07,-59.13 -19.67,-0.03 -39.33,-0.03 -59,0 z"
       id="path5"
       inkscape:connector-curvature="0"
       style="opacity:0.81999972;fill:#212121" />
  </g>
  <g
     id="#ffffffff"
     transform="matrix(1.2520479,0,0,1.2520479,-836.35548,-78.839378)">
    <path
       d="m 669.32,64.13 c 99.92,-0.3 199.84,-0.05 299.77,-0.13 -0.02,9.14 0.03,18.28 -0.03,27.42 -99.85,0.05 -199.71,-0.04 -299.56,0.04 -0.24,-9.11 0.11,-18.22 -0.18,-27.33 z"
       id="path8"
       inkscape:connector-curvature="0"
       style="fill:#ffffff" />
    <path
       d="m 669.43,258.09 c 0.05,-55.18 -0.12,-110.37 0.08,-165.56 6.01,0.03 12.03,0.12 18.04,-0.05 0.38,50.86 0.06,101.74 0.17,152.6 0.03,313.95 -0.08,627.9 0.05,941.85 -6.14,0.08 -12.28,0.12 -18.41,-0.02 0.16,-309.61 0.02,-619.21 0.07,-928.82 z"
       id="path10"
       inkscape:connector-curvature="0"
       style="fill:#ffffff" />
    <path
       d="m 688.88,92.58 c 2.7,-0.02 5.41,-0.01 8.12,0 0,364.8 0,729.61 0,1094.42 -2.72,-0.02 -5.44,-0.02 -8.15,-0.01 0.02,-364.8 -0.05,-729.61 0.03,-1094.41 z"
       id="path12"
       inkscape:connector-curvature="0"
       style="fill:#ffffff" />
    <path
       d="m 698.17,93.1 c 15.91,-0.58 31.87,-0.08 47.79,-0.25 64.73,0.02 129.46,-0.03 194.19,0.03 -0.01,0.88 -0.04,2.65 -0.05,3.54 -80.52,0.07 -161.04,-0.09 -241.56,0.08 -0.08,-1.14 -0.2,-2.27 -0.37,-3.4 z"
       id="path14"
       inkscape:connector-curvature="0"
       style="fill:#ffffff" />
    <path
       d="m 941.76,92.59 c 2.74,-0.01 5.48,-0.04 8.22,-0.03 0.04,364.81 0.01,729.63 0.02,1094.44 -2.76,-0.01 -5.51,-0.01 -8.26,0 0.02,-364.81 -0.02,-729.61 0.02,-1094.41 z"
       id="path16"
       inkscape:connector-curvature="0"
       style="fill:#ffffff" />
    <path
       d="m 951.01,92.56 c 6.01,0.02 12.02,0 18.03,0.01 0.07,364.81 0.01,729.62 0.03,1094.43 -6.03,-0.01 -12.05,-0.01 -18.07,0 0.01,-364.82 -0.02,-729.63 0.01,-1094.44 z"
       id="path18"
       inkscape:connector-curvature="0"
       style="fill:#ffffff" />
    <path
       d="m 698.4,1183.29 c 80.54,-0.05 161.07,0.07 241.61,-0.06 0.03,1.24 0.09,2.5 0.19,3.77 -80.63,-0.05 -161.27,0.09 -241.9,-0.07 0.03,-1.23 0.06,-2.44 0.1,-3.64 z"
       id="path20"
       inkscape:connector-curvature="0"
       style="fill:#ffffff" />
    <path
       d="m 669.35,1188.1 c 99.91,-0.22 199.82,-0.04 299.74,-0.1 -0.01,9.05 0.01,18.09 -0.02,27.14 -23.36,0.07 -46.73,-0.18 -70.09,0.29 -53.98,0.01 -107.95,-0.01 -161.93,0.01 -22.49,-0.52 -45,-0.27 -67.49,-0.23 -0.36,-9.03 0.05,-18.08 -0.21,-27.11 z"
       id="path22"
       inkscape:connector-curvature="0"
       style="fill:#ffffff" />
  </g>
  <g
     id="#a9a9a9ff"
     transform="matrix(1.2520479,0,0,1.2520479,-836.35548,-78.839378)">
    <path
       d="m 669.44,1275.66 c 0.12,-19.7 -0.16,-39.4 0.13,-59.09 19.63,0 39.25,0.16 58.88,-0.08 0.59,19.7 0.1,39.47 0.24,59.2 -19.75,0 -39.5,0.06 -59.25,-0.03 z"
       id="path25"
       inkscape:connector-curvature="0"
       style="fill:#a9a9a9" />
    <path
       d="m 910,1216.62 c 19.67,-0.03 39.33,-0.03 59,0 -0.04,19.71 0.11,39.42 -0.07,59.13 -19.61,-0.06 -39.21,-0.13 -58.82,0.03 -0.25,-19.72 -0.04,-39.44 -0.11,-59.16 z"
       id="path27"
       inkscape:connector-curvature="0"
       style="fill:#a9a9a9" />
  </g>
</svg>
